<svg width="18" height="23" viewBox="0 0 18 23" fill="none" xmlns="http://www.w3.org/2000/svg">
<path d="M14.625 11.25C16.489 11.25 18 12.761 18 14.625C18 17.1362 16.9673 19.1481 15.2727 20.5083C13.6048 21.8471 11.3694 22.5 9 22.5C6.63057 22.5 4.3952 21.8471 2.72734 20.5083C1.03268 19.1481 0 17.1362 0 14.625C0 12.8708 1.33847 11.429 3.04992 11.2655L3.37495 11.25H14.625ZM9 0C11.4853 0 13.5 2.01472 13.5 4.5C13.5 6.98528 11.4853 9 9 9C6.51472 9 4.5 6.98528 4.5 4.5C4.5 2.01472 6.51472 0 9 0Z" fill="#9FC5FF"/>
</svg>
