<svg width="22" height="16" viewBox="0 0 22 16" fill="none" xmlns="http://www.w3.org/2000/svg">
<path d="M0 1.96429C0 0.879434 0.879434 0 1.96429 0H16.8929C17.9778 0 18.8571 0.879434 18.8571 1.96429V10.6071C18.8571 11.6921 17.9778 12.5714 16.8929 12.5714H1.96429C0.879434 12.5714 0 11.6921 0 10.6071V1.96429ZM4.71429 2.35714V1.57143H3.14286V2.35714C3.14286 2.79108 2.79108 3.14286 2.35714 3.14286H1.57143V4.71429H2.35714C3.65896 4.71429 4.71429 3.65896 4.71429 2.35714ZM12.5714 6.28571C12.5714 4.54996 11.1643 3.14286 9.42857 3.14286C7.69282 3.14286 6.28571 4.54996 6.28571 6.28571C6.28571 8.02147 7.69282 9.42857 9.42857 9.42857C11.1643 9.42857 12.5714 8.02147 12.5714 6.28571ZM15.7143 1.57143H14.1429V2.35714C14.1429 3.65896 15.1982 4.71429 16.5 4.71429H17.2857V3.14286H16.5C16.0661 3.14286 15.7143 2.79108 15.7143 2.35714V1.57143ZM4.71429 10.2143C4.71429 8.91247 3.65896 7.85714 2.35714 7.85714H1.57143V9.42857H2.35714C2.79108 9.42857 3.14286 9.78035 3.14286 10.2143V11H4.71429V10.2143ZM15.7143 11V10.2143C15.7143 9.78035 16.0661 9.42857 16.5 9.42857H17.2857V7.85714H16.5C15.1982 7.85714 14.1429 8.91247 14.1429 10.2143V11H15.7143Z" fill="#9FC5FF"/>
<path d="M5.50018 15.7143C4.45266 15.7143 3.56474 15.031 3.25781 14.0858C3.47585 14.1233 3.70001 14.1428 3.92875 14.1428H16.893C18.8457 14.1428 20.4287 12.5598 20.4287 10.6071V3.27695C21.3443 3.60054 22.0002 4.47365 22.0002 5.49997V10.6071C22.0002 13.4277 19.7136 15.7143 16.893 15.7143H5.50018Z" fill="#9FC5FF"/>
</svg>
