<svg width="19" height="19" viewBox="0 0 19 19" fill="none" xmlns="http://www.w3.org/2000/svg">
<path d="M9.50002 0C4.25332 0 1.5904e-05 4.25329 1.5904e-05 9.5C1.5904e-05 11.146 0.419267 12.6961 1.1572 14.0473L0.0304791 17.9908C-0.0501917 18.2733 0.0320627 18.5771 0.244182 18.7802C0.456317 18.9832 0.763436 19.0523 1.04204 18.9593L4.74395 17.7254C6.14316 18.5361 7.76845 19 9.50002 19C14.7467 19 19 14.7467 19 9.5C19 4.25329 14.7467 0 9.50002 0ZM6.33333 7.91667C6.33333 7.47944 6.68778 7.125 7.125 7.125H11.875C12.3122 7.125 12.6667 7.47944 12.6667 7.91667C12.6667 8.35389 12.3122 8.70833 11.875 8.70833H7.125C6.68778 8.70833 6.33333 8.35389 6.33333 7.91667ZM7.125 10.2917H10.2917C10.7289 10.2917 11.0833 10.6461 11.0833 11.0833C11.0833 11.5206 10.7289 11.875 10.2917 11.875H7.125C6.68778 11.875 6.33333 11.5206 6.33333 11.0833C6.33333 10.6461 6.68778 10.2917 7.125 10.2917Z" fill="#9FC5FF"/>
</svg>
