<svg width="51" height="51" viewBox="0 0 51 51" fill="none" xmlns="http://www.w3.org/2000/svg">
<path d="M4.43679 17L4.39637 17.313C1.8442 18.1455 0 20.5449 0 23.375V36.125C0 39.6457 2.85417 42.5 6.375 42.5H44.625C48.1457 42.5 51 39.6457 51 36.125V23.375C51 20.5369 49.1453 18.1319 46.5817 17.306L46.5426 17H48.875C50.0484 17 51 16.0486 51 14.875C51 13.7014 50.0484 12.75 48.875 12.75H45.9999L45.3195 7.42284C44.7771 3.17934 41.1659 0 36.8879 0H14.1049C9.83127 0 6.22217 3.17309 5.6749 7.41149L4.98559 12.75H2.12521C0.951618 12.75 0.000212789 13.7014 0.000212789 14.875C0.000212789 16.0486 0.951618 17 2.12521 17H4.43679ZM14.1049 4.25H36.8879C39.0269 4.25 40.8323 5.83967 41.1035 7.9614L42.2582 17H8.72206L9.88988 7.95575C10.1635 5.83653 11.9681 4.25 14.1049 4.25ZM13.817 32.933C12.059 32.933 10.6338 31.5078 10.6338 29.7498C10.6338 27.9918 12.059 26.5667 13.817 26.5667C15.575 26.5667 17.0001 27.9918 17.0001 29.7498C17.0001 31.5078 15.575 32.933 13.817 32.933ZM37.1832 32.933C35.425 32.933 34 31.5078 34 29.7498C34 27.9918 35.425 26.5667 37.1832 26.5667C38.941 26.5667 40.3665 27.9918 40.3665 29.7498C40.3665 31.5078 38.941 32.933 37.1832 32.933Z" fill="#9FC5FF"/>
<path d="M44.6123 46.75H38.2373V47.8125C38.2373 49.5729 39.6645 51 41.4248 51C43.1856 51 44.6123 49.5729 44.6123 47.8125V46.75Z" fill="#9FC5FF"/>
<path d="M12.75 46.75H6.375V47.8125C6.375 49.5729 7.80211 51 9.5625 51C11.3229 51 12.75 49.5729 12.75 47.8125V46.75Z" fill="#9FC5FF"/>
</svg>
