<svg width="45" height="44" viewBox="0 0 45 44" fill="none" xmlns="http://www.w3.org/2000/svg">
<g clip-path="url(#clip0_433_4911)">
<path d="M21.2495 24.298C22.9105 24.298 24.2571 22.9515 24.2571 21.2905C24.2571 19.6294 22.9105 18.2829 21.2495 18.2829C19.5885 18.2829 18.2419 19.6294 18.2419 21.2905C18.2419 22.9515 19.5885 24.298 21.2495 24.298Z" fill="#9FC5FF"/>
<path d="M36.5104 25.1168C38.1714 25.1168 39.5179 23.7703 39.5179 22.1093C39.5179 20.4483 38.1714 19.1017 36.5104 19.1017C34.8493 19.1017 33.5028 20.4483 33.5028 22.1093C33.5028 23.7703 34.8493 25.1168 36.5104 25.1168Z" fill="#9FC5FF"/>
<path d="M15.9538 27.612L8.63501 25.1169V41.0854H27.4312L43.4361 31.5804L42.2352 28.4437L36.5796 30.6061L30.2588 33.2676L16.7856 34.2655L25.934 33.2676L25.1024 29.4417L15.9538 27.612Z" fill="#9FC5FF"/>
<path d="M5.57308 0.174856C5.13228 0.399413 4.61665 0.973276 4.49188 1.39744C4.42536 1.59704 4.39209 2.34556 4.39209 3.34359C4.39209 5.13171 4.4503 5.47271 4.91604 6.36261C5.19051 6.87825 6.01387 7.76816 6.30497 7.85965C6.4713 7.90954 6.4713 8.00935 6.4713 12.6751C6.4713 16.0518 6.49626 17.5238 6.56279 17.7151C6.621 17.8649 7.05348 18.5135 7.52754 19.1457C8.4424 20.3765 8.75012 20.6177 9.35726 20.6261C9.98934 20.6261 10.2555 20.4181 11.162 19.2205C11.6361 18.5967 12.0602 18.0062 12.1101 17.9064C12.1767 17.7901 12.2099 17.2744 12.2099 16.5092V15.2866L11.7026 14.7543L11.1953 14.2303L11.5779 13.7979C12.2848 13.0161 12.2765 12.4838 11.5446 11.7686L11.1287 11.361L11.6693 10.8038L12.2099 10.2466V9.12381V8.00103L12.4927 7.81806C13.2662 7.344 14.0812 6.14637 14.2808 5.17329C14.3973 4.61607 14.3973 1.88813 14.2892 1.4806C14.1478 0.98991 13.7153 0.482581 13.2163 0.224758L12.7589 0.000202179H9.34895C6.03883 0.000202179 5.9224 0.00851871 5.57308 0.174856ZM12.6757 1.70516L12.8919 1.9214L12.8587 3.43507C12.8337 4.89883 12.8254 4.96537 12.6008 5.4228C12.2598 6.12142 11.5945 6.68696 10.8709 6.91152C10.3719 7.06122 10.1307 7.08617 9.14934 7.0529C8.13467 7.02796 7.96002 6.99469 7.54418 6.80341C6.97032 6.53726 6.4713 6.0632 6.16359 5.47271C5.93903 5.04023 5.93071 4.99032 5.90576 3.46002C5.87249 1.92971 5.88081 1.88813 6.06378 1.69684L6.24675 1.49724H9.35726H12.4678L12.6757 1.70516ZM10.7129 9.06559C10.7129 9.60619 10.7046 9.6145 10.3303 9.98045C10.1141 10.1884 9.83963 10.521 9.70657 10.7206C9.31568 11.3278 9.39052 11.727 10.0143 12.3923L10.4052 12.8082L9.98103 13.2573C9.24914 14.0308 9.28241 14.4382 10.139 15.3366L10.7129 15.9436V16.609V17.2744L10.0392 18.1642L9.36558 19.0541L8.66696 18.1226L7.96834 17.1912V12.8581V8.525H9.34063H10.7129V9.06559Z" fill="white"/>
<path d="M8.10217 3.08593C7.85267 3.37703 7.83603 3.56831 8.0107 3.90098C8.19367 4.25862 8.50138 4.34178 9.49941 4.30852C10.2812 4.28357 10.3893 4.26693 10.5806 4.08397C10.8883 3.79287 10.8883 3.24396 10.5806 3.00277C10.381 2.84474 10.2479 2.82811 9.34138 2.82811H8.31841L8.10217 3.08593Z" fill="white"/>
<path d="M23.7298 7.17792C23.2392 7.36922 22.8649 7.6603 22.6237 8.05119C22.4824 8.26743 21.8918 9.40684 21.3097 10.5795L20.2368 12.7253H18.2324C15.9452 12.7253 15.5793 12.7918 15.0305 13.2825C14.3567 13.8896 14.3318 13.9894 14.3068 16.4096L14.2819 18.5471L13.9575 18.7135C13.3421 19.0294 12.8763 19.8278 12.8763 20.5848C12.8763 21.4164 13.392 22.2149 14.1405 22.5392C14.5231 22.7138 14.7476 22.7388 15.9286 22.772L17.276 22.8053L17.5255 23.346C18.0578 24.4853 19.2305 25.3502 20.4945 25.5332C22.1746 25.7911 23.9212 24.8762 24.6281 23.3626L24.8943 22.7887H28.8863H32.8784L33.1611 23.3708C33.8931 24.8928 35.6063 25.7911 37.2946 25.5332C38.5506 25.342 39.7149 24.4771 40.2471 23.346L40.4967 22.8136L41.5114 22.772C42.2016 22.7388 42.6341 22.6806 42.8586 22.589C43.2911 22.4061 43.7901 21.9238 43.9897 21.4995C44.181 21.092 44.1976 20.1605 44.0313 19.753C43.8733 19.3787 43.2911 18.7551 42.9834 18.6303L42.7338 18.5304V16.4346V14.3387L42.5177 13.898C42.2598 13.3906 41.7193 12.9498 41.1787 12.8168C40.9873 12.7669 40.5632 12.7253 40.2471 12.7253H39.6567L38.4922 10.4049C37.8602 9.12407 37.2116 7.94308 37.0701 7.77674C36.9205 7.6104 36.646 7.39416 36.463 7.29436L36.1219 7.11139L30.0506 7.09476C25.5347 7.08644 23.9128 7.10308 23.7298 7.17792ZM29.1774 10.6461V12.7253H25.5595H21.9417L22.8982 10.8207C23.4221 9.77278 23.9295 8.83299 24.0375 8.74149C24.2123 8.57516 24.3037 8.56684 26.699 8.56684H29.1774V10.6461ZM35.8142 8.69991C35.964 8.79972 37.9102 12.5007 37.9102 12.6837C37.9102 12.7086 36.28 12.7253 34.2922 12.7253H30.6744V10.6461V8.56684H33.1529C35.2737 8.56684 35.6562 8.58348 35.8142 8.69991ZM17.8665 14.6049C17.8665 15.3867 17.6502 15.5446 16.6022 15.553H15.7873V15.1289C15.7873 14.7712 15.8288 14.6714 16.0284 14.4635C16.2613 14.2306 16.3029 14.2224 17.0681 14.2224H17.8665V14.6049ZM40.8959 14.3471C41.0289 14.4135 41.1537 14.5301 41.1869 14.5965C41.2119 14.6714 41.2369 15.553 41.2369 16.5593V18.3808H40.0808C39.0163 18.3808 38.8999 18.3642 38.5672 18.1811C37.4693 17.5656 36.0305 17.5656 34.8163 18.1811C34.4336 18.3724 34.3588 18.3808 32.5457 18.3808H30.6744V17.1914C30.6661 16.393 30.6329 15.9689 30.5663 15.8773C30.242 15.4615 29.6099 15.4782 29.3438 15.9107C29.2023 16.1352 29.1774 16.3348 29.1774 17.2745V18.3808H26.2665H23.3473L22.9148 18.1562C21.7422 17.5656 20.2866 17.574 19.2055 18.1811C18.8562 18.3724 18.7814 18.3808 17.3176 18.3808H15.7873V17.7154V17.05H16.6854C17.7583 17.05 18.1992 16.9252 18.6482 16.4928C19.1139 16.0354 19.2887 15.6278 19.3385 14.871L19.3884 14.2224H30.0257C39.1992 14.2224 40.6962 14.239 40.8959 14.3471ZM22.1081 19.4619C23.4637 20.1439 23.9128 21.7491 23.0894 22.9967C22.5821 23.7535 21.5176 24.2192 20.6859 24.0446C19.3053 23.7451 18.4237 22.4726 18.6982 21.1668C18.8644 20.3518 19.5964 19.5451 20.3948 19.2956C20.819 19.1626 21.684 19.2457 22.1081 19.4619ZM37.7188 19.4537C38.2595 19.728 38.6336 20.0941 38.8831 20.6014C39.6483 22.1733 38.459 24.0612 36.6959 24.0694C35.9889 24.0694 35.2071 23.6869 34.7913 23.1463C33.7268 21.7491 34.3588 19.8528 36.0803 19.2873C36.4464 19.1626 37.3446 19.254 37.7188 19.4537ZM17.3674 20.3518C17.2842 20.618 17.1928 20.9341 17.1595 21.0588L17.1179 21.2916H16.1116C15.0305 21.2916 14.6229 21.1918 14.4565 20.8759C14.3068 20.6014 14.4316 20.2187 14.731 20.0358C14.9639 19.9028 15.1634 19.8778 16.2613 19.8778H17.5172L17.3674 20.3518ZM32.9532 20.435C32.8452 20.7511 32.7537 21.0671 32.7537 21.142C32.7537 21.2834 32.5125 21.2916 28.8946 21.2916H25.0356L24.9774 20.9341C24.9441 20.7427 24.8527 20.4266 24.7695 20.2271L24.6114 19.8778H28.878H33.1445L32.9532 20.435ZM42.4345 20.1189C42.7256 20.3934 42.7256 20.7759 42.4429 21.0421C42.2598 21.2168 42.1268 21.25 41.4532 21.275L40.6714 21.3083L40.5798 20.8841C40.5299 20.6512 40.4301 20.3269 40.3635 20.1605L40.2389 19.8612L41.2285 19.8944C42.1434 19.9194 42.2349 19.936 42.4345 20.1189Z" fill="white"/>
<path d="M24.6448 15.6526C24.2123 15.8856 24.1209 16.4928 24.4786 16.8421C24.6698 17.0416 24.728 17.05 25.7095 17.05C26.6658 17.05 26.749 17.0333 26.9153 16.8587C27.0069 16.7589 27.1067 16.5759 27.1399 16.4594C27.2148 16.1683 26.9903 15.7358 26.7158 15.636C26.433 15.5279 24.8527 15.5363 24.6448 15.6526Z" fill="white"/>
<path d="M32.4125 15.6776C31.98 15.9105 31.93 16.5842 32.3209 16.8837C32.4957 17.025 32.6536 17.05 33.502 17.05C34.3503 17.05 34.5083 17.025 34.683 16.8837C35.0821 16.5759 35.0239 15.9022 34.5749 15.6776C34.2588 15.5113 32.7202 15.5113 32.4125 15.6776Z" fill="white"/>
<path d="M2.97895 23.4952C2.4633 23.6615 2.03914 24.0358 1.78132 24.5514L1.56508 24.9839V33.0097C1.56508 42.0417 1.52349 41.3681 2.19715 42.0169C2.77103 42.5657 2.87082 42.5823 5.44905 42.5823C7.5948 42.5823 7.78609 42.5657 8.13541 42.4078C8.34333 42.3162 8.58452 42.1665 8.676 42.0833C8.84233 41.9253 9.13343 41.9171 18.282 41.9004L27.7216 41.8755L28.387 41.6426C29.1688 41.3599 28.7695 41.5926 36.7038 36.769C41.877 33.6251 43.0996 32.8433 43.4489 32.4774C44.0144 31.8869 44.1807 31.4129 44.1309 30.4896C44.0893 29.7078 43.9062 29.2837 43.3989 28.7764C42.8833 28.2608 42.4674 28.0861 41.644 28.0445L40.9288 28.0113L34.0342 30.3066C29.8175 31.7122 27.0147 32.6022 26.815 32.6022H26.4991L26.5573 32.2445C26.84 30.6061 26.0748 29.0675 24.5197 28.1776C23.7129 27.7118 23.4551 27.6786 20.4028 27.612C17.7746 27.5622 17.5335 27.5454 17.0344 27.3708C16.3608 27.1379 15.7537 26.8052 14.9636 26.2232C14.2067 25.6741 13.558 25.3582 12.5849 25.0753C11.9612 24.8924 11.6119 24.8425 10.5307 24.8092C9.32471 24.7676 9.2166 24.751 9.1667 24.593C9.08352 24.3351 8.55125 23.7863 8.18531 23.5949C7.86095 23.4203 7.72788 23.412 5.59876 23.3954C3.8439 23.3788 3.27003 23.4037 2.97895 23.4952ZM7.54491 24.9921C7.67798 25.0587 7.80273 25.1752 7.83599 25.2417C7.86095 25.3166 7.8859 28.8262 7.8859 33.0429V40.7027L7.70293 40.894C7.52828 41.0854 7.51164 41.0854 5.48232 41.0854C3.51122 41.0854 3.44469 41.077 3.25341 40.9024L3.06211 40.7277V33.0429C3.06211 27.7617 3.08706 25.2999 3.1536 25.1918C3.2035 25.1003 3.31993 24.9921 3.41974 24.9506C3.51954 24.909 4.4344 24.8758 5.45737 24.8758C6.92945 24.8674 7.36193 24.8924 7.54491 24.9921ZM11.4871 26.3727C12.3105 26.4975 13.2253 26.8718 13.9156 27.3625C14.9718 28.111 15.737 28.5269 16.5355 28.793L17.3255 29.0592L20.1949 29.109L23.0643 29.1506L23.5299 29.3753C24.8108 29.9657 25.476 31.2963 24.9937 32.2861L24.8356 32.5856L22.0828 32.6188C19.3631 32.652 19.3133 32.6603 18.5897 32.8767C17.4753 33.2176 15.9699 34.0493 15.8368 34.3903C15.737 34.673 15.7953 35.0141 15.9865 35.2386C16.2692 35.5629 16.7017 35.5546 17.2008 35.2136C17.7414 34.8393 18.5066 34.4651 19.0804 34.2987C19.5045 34.1741 20.1199 34.1491 23.6463 34.0992L27.7216 34.0493L34.4583 31.787C38.6833 30.3648 41.3113 29.5249 41.5193 29.5249C41.9601 29.5249 42.351 29.791 42.5756 30.2402C42.7335 30.5811 42.7419 30.6559 42.6504 30.9637C42.6005 31.1467 42.4426 31.3961 42.3178 31.5127C41.9351 31.8702 28.4951 39.9875 27.9629 40.1954L27.4721 40.3784L18.4316 40.4034L9.38294 40.4283V33.3507V26.2813H10.1398C10.5473 26.2813 11.1628 26.3229 11.4871 26.3727Z" fill="white"/>
</g>
<defs>
<clipPath id="clip0_433_4911">
<rect width="44" height="44" fill="white" transform="translate(0.5)"/>
</clipPath>
</defs>
</svg>
