<svg width="14" height="14" viewBox="0 0 14 14" fill="none" xmlns="http://www.w3.org/2000/svg">
<path d="M13.031 5.4425L11.8643 4.85917C11.6485 4.75417 11.3802 4.83584 11.2752 5.05167C11.1643 5.27334 11.2518 5.53584 11.4677 5.64084L12.3952 6.10167V8.89584L10.2077 8.90167V2.91667C10.2077 1.75001 9.42601 1.16667 8.45768 1.16667H3.79102C2.82268 1.16667 2.04102 1.75001 2.04102 2.91667V12.3958H1.16602C0.926849 12.3958 0.728516 12.5942 0.728516 12.8333C0.728516 13.0725 0.926849 13.2708 1.16602 13.2708H11.0827C11.3218 13.2708 11.5202 13.0725 11.5202 12.8333C11.5202 12.5942 11.3218 12.3958 11.0827 12.3958H10.2077V9.77667L12.8327 9.77084C13.0777 9.77084 13.2702 9.5725 13.2702 9.33334V5.83334C13.2702 5.67 13.1768 5.51834 13.031 5.4425ZM3.49935 4.01917C3.49935 3.20834 3.99518 2.91667 4.60185 2.91667H7.65268C8.25352 2.91667 8.74935 3.20834 8.74935 4.01917V4.73667C8.74935 5.54167 8.25352 5.83334 7.64685 5.83334H4.60185C3.99518 5.83334 3.49935 5.54167 3.49935 4.73084V4.01917ZM3.79102 7.14584H5.54102C5.78018 7.14584 5.97852 7.34417 5.97852 7.58334C5.97852 7.8225 5.78018 8.02084 5.54102 8.02084H3.79102C3.55185 8.02084 3.35352 7.8225 3.35352 7.58334C3.35352 7.34417 3.55185 7.14584 3.79102 7.14584Z" fill="#90A3BF"/>
</svg>
