<svg width="32" height="32" viewBox="0 0 32 32" fill="none" xmlns="http://www.w3.org/2000/svg">
<path d="M25.053 5.96004C24.1585 6.01116 23.2612 5.93938 22.3863 5.74671C21.3309 5.38531 20.3438 4.84894 19.4663 4.16004C18.7156 3.62789 18.0028 3.04427 17.333 2.41338C17.049 2.14812 16.6749 2.00058 16.2863 2.00058C15.8977 2.00058 15.5236 2.14812 15.2396 2.41338C14.5876 3.02432 13.9021 3.59854 13.1863 4.13338C12.3034 4.83133 11.3126 5.38076 10.253 5.76004C9.25634 5.98523 8.23255 6.06605 7.21295 6.00004C6.37809 5.96547 5.54574 5.88535 4.71962 5.76004C4.51775 5.73012 4.31191 5.74115 4.1144 5.79248C3.91688 5.84381 3.73172 5.93439 3.56996 6.05882C3.40821 6.18325 3.27316 6.33898 3.17288 6.51672C3.0726 6.69447 3.00914 6.89058 2.98629 7.09338C2.91962 7.73338 2.74629 9.40004 2.66629 11.2534C2.55417 13.1051 2.67061 14.9635 3.01295 16.7867C3.97834 19.8073 5.75388 22.5052 8.14629 24.5867C10.0479 26.3804 12.1098 27.996 14.3063 29.4134C14.8949 29.8176 15.5922 30.0339 16.3063 30.0339C17.0203 30.0339 17.7176 29.8176 18.3063 29.4134C20.3863 27.9591 22.3318 26.3214 24.1196 24.52C26.372 22.4233 28.04 19.7766 28.9596 16.84" stroke="#1A202C" stroke-width="2.5" stroke-linecap="round" stroke-linejoin="round"/>
<path d="M14.666 14.6667L18.4793 18.48C18.5031 18.5059 18.5319 18.5265 18.5641 18.5406C18.5962 18.5548 18.6309 18.5621 18.666 18.5621C18.7011 18.5621 18.7358 18.5548 18.768 18.5406C18.8001 18.5265 18.829 18.5059 18.8527 18.48L29.3327 8" stroke="#3563E9" stroke-width="2.5" stroke-linecap="round" stroke-linejoin="round"/>
</svg>
