<svg width="43" height="58" viewBox="0 0 43 58" fill="none" xmlns="http://www.w3.org/2000/svg">
<path d="M0 7.14286C0 3.19797 3.19797 0 7.14286 0H35.7143C39.6593 0 42.8572 3.19797 42.8572 7.14286V42.4393L33.9475 51.4382L30.6111 48.0354C28.54 45.9225 25.1482 45.889 23.0354 47.9604C20.9226 50.0315 20.889 53.4236 22.9604 55.5361L24.5357 57.1429H7.14286C3.19797 57.1429 0 53.945 0 50V7.14286ZM17.8571 26.7857C17.8571 27.7719 18.6567 28.5714 19.6429 28.5714H33.9286C34.9147 28.5714 35.7143 27.7719 35.7143 26.7857C35.7143 25.7995 34.9147 25 33.9286 25H19.6429C18.6567 25 17.8571 25.7995 17.8571 26.7857ZM19.6429 10.7143C18.6567 10.7143 17.8571 11.5138 17.8571 12.5C17.8571 13.4862 18.6567 14.2857 19.6429 14.2857H33.9286C34.9147 14.2857 35.7143 13.4862 35.7143 12.5C35.7143 11.5138 34.9147 10.7143 33.9286 10.7143H19.6429ZM17.8571 41.0714C17.8571 42.0575 18.6567 42.8572 19.6429 42.8572H33.9286C34.9147 42.8572 35.7143 42.0575 35.7143 41.0714C35.7143 40.0854 34.9147 39.2857 33.9286 39.2857H19.6429C18.6567 39.2857 17.8571 40.0854 17.8571 41.0714ZM10.7143 30.3572C12.6867 30.3572 14.2857 28.7582 14.2857 26.7857C14.2857 24.8133 12.6867 23.2143 10.7143 23.2143C8.74186 23.2143 7.14286 24.8133 7.14286 26.7857C7.14286 28.7582 8.74186 30.3572 10.7143 30.3572ZM14.2857 12.5C14.2857 10.5276 12.6867 8.92858 10.7143 8.92858C8.74186 8.92858 7.14286 10.5276 7.14286 12.5C7.14286 14.4724 8.74186 16.0714 10.7143 16.0714C12.6867 16.0714 14.2857 14.4724 14.2857 12.5ZM10.7143 44.6429C12.6867 44.6429 14.2857 43.0439 14.2857 41.0714C14.2857 39.0989 12.6867 37.5 10.7143 37.5C8.74186 37.5 7.14286 39.0989 7.14286 41.0714C7.14286 43.0439 8.74186 44.6429 10.7143 44.6429Z" fill="#E9F5FE"/>
</svg>
