<svg width="43" height="51" viewBox="0 0 43 51" fill="none" xmlns="http://www.w3.org/2000/svg">
<path d="M21.5 0C33.3741 0 43 9.62588 43 21.5C43 30.3992 36.2165 39.7265 22.9333 49.6889C22.084 50.3259 20.916 50.3259 20.0667 49.6889C6.78351 39.7265 0 30.3992 0 21.5C0 9.62588 9.62588 0 21.5 0ZM21.5 14.3333C17.542 14.3333 14.3333 17.542 14.3333 21.5C14.3333 25.458 17.542 28.6667 21.5 28.6667C25.458 28.6667 28.6667 25.458 28.6667 21.5C28.6667 17.542 25.458 14.3333 21.5 14.3333Z" fill="#9FC5FF"/>
</svg>
